<svg xmlns="http://www.w3.org/2000/svg" width="69.818" height="54.501" viewBox="0 0 69.818 54.501"><defs><style>.a{fill:#fff;}</style></defs><g transform="translate(0 -36.758)"><g transform="translate(-0.001 36.758)"><path class="a" d="M64.838,53.223c-.282-2.122-.322-5.778,1.649-7.006a.739.739,0,0,0,.092-.083c1.612-.515,2.727-1.239,1.852-2.212L44.656,36.758,6.159,42.11s-4.408.63-4.015,7.479c.214,3.728,1.383,5.558,2.405,6.459L1.391,57c-.877.973.238,1.7,1.85,2.212a.637.637,0,0,0,.092.084C5.3,60.525,5.265,64.18,4.982,66.3-2.1,68.313.445,68.967.445,68.967L2,69.343C.906,70.33-.179,72.2.024,75.75c.394,6.848,4.015,7.32,4.015,7.32l25.192,8.188,38.025-9.21s2.541-.656-4.538-2.666c-.285-2.12-.324-5.774,1.65-7.006a.582.582,0,0,0,.092-.083c1.612-.515,2.726-1.238,1.851-2.212l-1.653-.5c1.1-.665,2.758-2.4,3.017-6.914.179-3.1-.631-4.922-1.568-5.992l3.267-.791S71.917,55.232,64.838,53.223Zm-31.806-.088,6.394-1.314L61.036,47.38l3.219-.662a11.147,11.147,0,0,0-.815,6.116c.037.375.08.717.122.977l-3.524.876L32.764,61.471ZM5.565,59.8l3.219.662,20.753,4.266,1.813.371h0l5.437,1.117.268,8.337L9.022,67.579l-2.764-.687c.041-.26.084-.6.123-.978A11.149,11.149,0,0,0,5.565,59.8ZM4.314,49.26c-.039-1.822.286-3.139.942-3.809A1.71,1.71,0,0,1,6.5,44.934a2.117,2.117,0,0,1,.316.025l16.587,5.408,8.276,2.7-.272,8.395L8.2,54.951,6.97,54.608a.742.742,0,0,0-.153-.024C6.721,54.577,4.426,54.366,4.314,49.26ZM29.292,87.622,4.85,80.77a.727.727,0,0,0-.153-.024c-.1-.006-2.394-.218-2.5-5.323-.04-1.824.287-3.14.942-3.811A1.714,1.714,0,0,1,4.383,71.1a2.207,2.207,0,0,1,.317.024h0l24.862,8.107Zm32.027-8.628c.039.376.081.717.123.978l-30.8,7.662.269-8.337L37.5,77.943l.972.235,3.645-1.185,16.8-3.452,3.221-.663A11.136,11.136,0,0,0,61.319,78.994Zm1.7-11.33a.592.592,0,0,0-.165.025l-2.323.65-22.118,6.2-.27-8.395L45.4,63.78l17.571-5.73a1.83,1.83,0,0,1,1.6.482c.655.67.98,1.987.942,3.809C65.4,67.446,63.1,67.658,63.015,67.664Z" transform="translate(0.001 -36.758)"/></g></g></svg>