<svg xmlns="http://www.w3.org/2000/svg" width="276" height="275.904" viewBox="0 0 276 275.904"><defs><style>.a{fill:#012d74;}</style></defs><g transform="translate(-3.4 -3.5)"><path class="a" d="M3.4,150.069V132.8c.14-.772.351-1.544.491-2.316C4.8,124.167,5.436,117.849,6.7,111.6,17.79,58.112,63.417,14.38,117.328,5.606c5.124-.842,10.249-1.4,15.443-2.106h17.268c.7.14,1.4.351,2.106.421,6.318.913,12.635,1.544,18.883,2.808,57.631,12,102.626,62.685,107.751,121.368,2.387,27.236-1.965,53.349-15.233,77.286-25.832,46.821-65.844,71.81-119.4,73.916-28.5,1.123-54.893-6.739-78.619-22.6C32.812,234.8,12.736,204.33,5.576,165.582,4.593,160.388,4.1,155.193,3.4,150.069Zm70.406,85.99.842-.632q27.482-27.376,54.823-54.893a4.762,4.762,0,0,0,1.123-3.089c.07-8.564,0-17.058.14-25.621,0-2.106-.632-2.878-2.6-3.51-17.619-5.756-35.238-11.723-52.857-17.549-3.58-1.193-6.247-3.229-7.511-6.739a10.162,10.162,0,0,1,2.176-11.021c3.159-3.44,7.16-4.282,11.582-2.878,19.163,6.318,38.257,12.776,57.42,19.023a8.286,8.286,0,0,0,5.054-.07c18.812-6.177,37.625-12.495,56.437-18.6a14.68,14.68,0,0,1,7.581-.421c4.563.913,7.581,5.265,7.722,9.827.14,4.914-2.738,8.985-7.792,10.74q-21.059,7.055-42.117,14.039c-4.563,1.544-9.125,3.089-13.688,4.563,0,9.827-.07,19.3.07,28.85a5.081,5.081,0,0,0,1.544,2.878q26.745,26.85,53.489,53.559c.562.562,1.123,1.053,1.685,1.544,37.906-26.6,58.824-76.935,43.872-128.248C238.766,59.235,192.437,24.84,141.054,25.05,88.477,25.261,43.2,59.727,29.092,111.11A115.224,115.224,0,0,0,73.806,236.059Zm19.514,11.582q48.224,20.532,95.887.14l-48.014-48.014C125.47,215.491,109.536,231.355,93.321,247.641Z"/><path class="a" d="M218.408,95.8A31.9,31.9,0,1,1,186.468,64,31.8,31.8,0,0,1,218.408,95.8Zm-21.62,0a10.354,10.354,0,1,0-10.319,10.459A10.279,10.279,0,0,0,196.787,95.8Z" transform="translate(-45.064 -18.031)"/></g></svg>