<svg xmlns="http://www.w3.org/2000/svg" width="212" height="172.347" viewBox="0 0 212 172.347"><defs><style>.a{fill:#012d74;}</style></defs><g transform="translate(-86.4 -50.9)"><path class="a" d="M238.444,133v75.315h-4.155V111.7L193.92,86.781V71.612s14.484,10.808,27.58,0V55.6c-10.927,8.156-27.58,0-27.58,0V52.63a1.73,1.73,0,1,0-3.461,0V86.785L150.09,111.7v96.615h-3.729V133.04H86.4v90.207h59.957v-.057h92.087v.018H298.4V133H238.444ZM113.278,201.745a3.059,3.059,0,0,1-3.057,3.057H96.308a3.059,3.059,0,0,1-3.057-3.057V191.727a3.059,3.059,0,0,1,3.057-3.057h13.909a3.059,3.059,0,0,1,3.057,3.057v10.018Zm0-23.487a3.059,3.059,0,0,1-3.057,3.057H96.308a3.059,3.059,0,0,1-3.057-3.057V168.24a3.059,3.059,0,0,1,3.057-3.057h13.909a3.059,3.059,0,0,1,3.057,3.057v10.018Zm0-23.487a3.059,3.059,0,0,1-3.057,3.057H96.308a3.059,3.059,0,0,1-3.057-3.057V144.753a3.059,3.059,0,0,1,3.057-3.057h13.909a3.059,3.059,0,0,1,3.057,3.057V154.77Zm26.228,46.975a3.059,3.059,0,0,1-3.057,3.057H122.536a3.059,3.059,0,0,1-3.057-3.057V191.727a3.059,3.059,0,0,1,3.057-3.057h13.913a3.059,3.059,0,0,1,3.057,3.057Zm0-23.487a3.059,3.059,0,0,1-3.057,3.057H122.536a3.059,3.059,0,0,1-3.057-3.057V168.24a3.059,3.059,0,0,1,3.057-3.057h13.913a3.059,3.059,0,0,1,3.057,3.057Zm0-23.487a3.059,3.059,0,0,1-3.057,3.057H122.536a3.059,3.059,0,0,1-3.057-3.057V144.753a3.059,3.059,0,0,1,3.057-3.057h13.913a3.059,3.059,0,0,1,3.057,3.057Zm36.465,51.445a3.059,3.059,0,0,1-3.057,3.057H159.005a3.059,3.059,0,0,1-3.057-3.057V196.2a3.059,3.059,0,0,1,3.057-3.057h13.909a3.059,3.059,0,0,1,3.057,3.057Zm0-23.281a3.059,3.059,0,0,1-3.057,3.057H159.005a3.059,3.059,0,0,1-3.057-3.057V172.917a3.059,3.059,0,0,1,3.057-3.057h13.909a3.059,3.059,0,0,1,3.057,3.057Zm0-23.285a3.059,3.059,0,0,1-3.057,3.057H159.005a3.059,3.059,0,0,1-3.057-3.057V149.632a3.059,3.059,0,0,1,3.057-3.057h13.909a3.059,3.059,0,0,1,3.057,3.057Zm0-23.281a3.059,3.059,0,0,1-3.057,3.057H159.005a3.059,3.059,0,0,1-3.057-3.057V126.351a3.059,3.059,0,0,1,3.057-3.057h13.909a3.059,3.059,0,0,1,3.057,3.057ZM202.2,206.216a3.059,3.059,0,0,1-3.057,3.057H185.233a3.059,3.059,0,0,1-3.057-3.057V196.2a3.059,3.059,0,0,1,3.057-3.057h13.909A3.059,3.059,0,0,1,202.2,196.2Zm0-23.281a3.059,3.059,0,0,1-3.057,3.057H185.233a3.059,3.059,0,0,1-3.057-3.057V172.917a3.059,3.059,0,0,1,3.057-3.057h13.909a3.059,3.059,0,0,1,3.057,3.057Zm0-23.285a3.059,3.059,0,0,1-3.057,3.057H185.233a3.059,3.059,0,0,1-3.057-3.057V149.632a3.059,3.059,0,0,1,3.057-3.057h13.909a3.059,3.059,0,0,1,3.057,3.057Zm0-23.281a3.059,3.059,0,0,1-3.057,3.057H185.233a3.059,3.059,0,0,1-3.057-3.057V126.351a3.059,3.059,0,0,1,3.057-3.057h13.909a3.059,3.059,0,0,1,3.057,3.057Zm26.228,69.847a3.059,3.059,0,0,1-3.057,3.057H211.461a3.059,3.059,0,0,1-3.057-3.057V196.2a3.059,3.059,0,0,1,3.057-3.057h13.909a3.059,3.059,0,0,1,3.057,3.057Zm0-23.281a3.059,3.059,0,0,1-3.057,3.057H211.461a3.059,3.059,0,0,1-3.057-3.057V172.917a3.059,3.059,0,0,1,3.057-3.057h13.909a3.059,3.059,0,0,1,3.057,3.057Zm0-23.285a3.059,3.059,0,0,1-3.057,3.057H211.461a3.059,3.059,0,0,1-3.057-3.057V149.632a3.059,3.059,0,0,1,3.057-3.057h13.909a3.059,3.059,0,0,1,3.057,3.057Zm0-23.281a3.059,3.059,0,0,1-3.057,3.057H211.461a3.059,3.059,0,0,1-3.057-3.057V126.351a3.059,3.059,0,0,1,3.057-3.057h13.909a3.059,3.059,0,0,1,3.057,3.057Zm36.9,65.332a3.059,3.059,0,0,1-3.057,3.057H248.352a3.059,3.059,0,0,1-3.057-3.057V191.683a3.059,3.059,0,0,1,3.057-3.057H262.26a3.059,3.059,0,0,1,3.057,3.057V201.7Zm0-23.487a3.059,3.059,0,0,1-3.057,3.057H248.352a3.059,3.059,0,0,1-3.057-3.057V168.2a3.059,3.059,0,0,1,3.057-3.057H262.26a3.059,3.059,0,0,1,3.057,3.057v10.018Zm0-23.487a3.059,3.059,0,0,1-3.057,3.057H248.352a3.059,3.059,0,0,1-3.057-3.057V144.709a3.059,3.059,0,0,1,3.057-3.057H262.26a3.059,3.059,0,0,1,3.057,3.057v10.018ZM291.549,201.7a3.059,3.059,0,0,1-3.057,3.057H274.584a3.059,3.059,0,0,1-3.057-3.057V191.683a3.059,3.059,0,0,1,3.057-3.057h13.909a3.059,3.059,0,0,1,3.057,3.057Zm0-23.487a3.059,3.059,0,0,1-3.057,3.057H274.584a3.059,3.059,0,0,1-3.057-3.057V168.2a3.059,3.059,0,0,1,3.057-3.057h13.909a3.059,3.059,0,0,1,3.057,3.057Zm0-23.487a3.059,3.059,0,0,1-3.057,3.057H274.584a3.059,3.059,0,0,1-3.057-3.057V144.709a3.059,3.059,0,0,1,3.057-3.057h13.909a3.059,3.059,0,0,1,3.057,3.057Z"/></g></svg>